<?xml version="1.0" encoding="UTF-8" standalone="no"?>
<!DOCTYPE svg PUBLIC "-//W3C//DTD SVG 1.1//EN" "http://www.w3.org/Graphics/SVG/1.1/DTD/svg11.dtd">
<svg width="100%" height="100%" viewBox="0 0 60 138" version="1.1" xmlns="http://www.w3.org/2000/svg" xmlns:xlink="http://www.w3.org/1999/xlink" xml:space="preserve" xmlns:serif="http://www.serif.com/" style="fill-rule:evenodd;clip-rule:evenodd;stroke-linecap:square;stroke-miterlimit:1.5;">
    <g id="tripod">
        <rect x="15.437" y="3.819" width="28.346" height="5.599" style="fill:none;stroke:#fff;stroke-width:0.85px;"/>
        <rect x="17.592" y="46.468" width="24.126" height="5.599" style="fill:none;stroke:#fff;stroke-width:0.85px;"/>
        <rect x="12.603" y="83.219" width="34.016" height="14.173" style="fill:none;stroke:#fff;stroke-width:0.85px;"/>
        <path d="M12.603,88.888l-11.773,48.16l8.938,0l8.939,-39.656l-6.104,0l0,-8.504Z" style="fill:none;stroke:#fff;stroke-width:0.85px;"/>
        <path d="M46.619,88.888l11.773,48.16l-8.939,0l-8.938,-39.656l6.104,0l0,-8.504Z" style="fill:none;stroke:#fff;stroke-width:0.85px;"/>
        <rect x="21.151" y="52.167" width="17.008" height="31.052" style="fill:none;stroke:#fff;stroke-width:0.85px;"/>
        <rect x="23.496" y="97.392" width="11.784" height="39.656" style="fill:none;stroke:#fff;stroke-width:0.85px;"/>
        <path d="M53.604,44.922l1.235,-9.922l0,-8.504l-1.235,-9.921l-5.785,0.029l-1.2,9.922l0,8.603l1.2,9.822l5.785,-0.029Z" style="fill:none;stroke:#fff;stroke-width:0.85px;"/>
        <rect x="23.941" y="9.518" width="11.339" height="5.669" style="fill:none;stroke:#fff;stroke-width:0.85px;"/>
        <path d="M43.784,35.104l2.835,0l0,-8.578l-2.835,0" style="fill:none;stroke:#fff;stroke-width:0.85px;"/>
        <path d="M23.941,15.187c2.833,0.001 8.501,0.002 11.339,0c4.988,2.745 8.504,8.346 8.504,15.591c0,7.297 -3.458,12.877 -8.504,15.59c-2.825,-0.013 -8.506,-0.001 -11.339,0c-5.073,-2.698 -8.504,-8.269 -8.504,-15.59c0,-7.232 3.53,-12.839 8.504,-15.591Z" style="fill:none;stroke:#fff;stroke-width:0.85px;"/>
        <rect x="26.776" y="0.985" width="5.224" height="2.835" style="fill:none;stroke:#fff;stroke-width:0.85px;"/>
        <path d="M56.256,33.39l0,-5.224l-1.346,0l0,5.224l1.346,0Z" style="fill:none;stroke:#fff;stroke-width:0.85px;"/>
        <circle cx="16.175" cy="91.722" r="1.417" style="fill:none;stroke:#fff;stroke-width:0.85px;"/>
        <circle cx="43.135" cy="91.722" r="1.417" style="fill:none;stroke:#fff;stroke-width:0.85px;"/>
    </g>
</svg>
